<svg width="132" height="132" viewBox="0 0 132 132" fill="none" xmlns="http://www.w3.org/2000/svg">
<path d="M119.5 66C119.5 95.5472 95.5472 119.5 66 119.5C36.4528 119.5 12.5 95.5472 12.5 66C12.5 36.4528 36.4528 12.5 66 12.5C95.5472 12.5 119.5 36.4528 119.5 66Z" stroke="#009688" stroke-width="3"/>
<path d="M54.9999 80.245L89.6499 45.595C90.7084 44.7009 92.0653 44.2392 93.4495 44.3023C94.8336 44.3654 96.1429 44.9485 97.1157 45.9352C98.0884 46.9218 98.653 48.2393 98.6964 49.6242C98.7398 51.0091 98.259 52.3593 97.3499 53.405L58.8499 91.905C57.8218 92.9127 56.4396 93.4772 54.9999 93.4772C53.5603 93.4772 52.1781 92.9127 51.1499 91.905L34.6499 75.405C33.7409 74.3593 33.2601 73.0091 33.3035 71.6242C33.3469 70.2393 33.9114 68.9218 34.8842 67.9352C35.857 66.9485 37.1663 66.3654 38.5504 66.3023C39.9345 66.2392 41.2915 66.7009 42.3499 67.595L54.9999 80.245Z" fill="#009688"/>
</svg>
